<svg width="168" height="85" viewBox="0 0 168 85" fill="none" xmlns="http://www.w3.org/2000/svg">
<path d="M4.50029 76.1382H7.43291V80.0806C7.02112 80.2166 6.59502 80.3223 6.15459 80.3975C5.71416 80.4727 5.22002 80.5103 4.67216 80.5103C3.87366 80.5103 3.1969 80.3527 2.64189 80.0376C2.09046 79.7189 1.67151 79.2588 1.38506 78.6572C1.0986 78.0521 0.955368 77.3234 0.955368 76.4712C0.955368 75.6512 1.11471 74.9404 1.4334 74.3389C1.75208 73.7337 2.21578 73.2664 2.82451 72.937C3.43323 72.604 4.17086 72.4375 5.0374 72.4375C5.46351 72.4375 5.87529 72.4805 6.27275 72.5664C6.67379 72.6488 7.04082 72.7633 7.37383 72.9102L6.92265 73.9736C6.65768 73.8483 6.36048 73.7427 6.03105 73.6567C5.70162 73.5708 5.35966 73.5278 5.00517 73.5278C4.443 73.5278 3.95781 73.6496 3.54961 73.8931C3.14498 74.1366 2.83346 74.4803 2.61504 74.9243C2.39661 75.3647 2.2874 75.8857 2.2874 76.4873C2.2874 77.071 2.37513 77.583 2.55058 78.0234C2.72604 78.4639 2.99996 78.8076 3.37236 79.0547C3.74834 79.2982 4.23353 79.4199 4.82793 79.4199C5.12513 79.4199 5.37757 79.4038 5.58525 79.3716C5.79293 79.3394 5.9845 79.3035 6.15996 79.2642V77.2393H4.50029V76.1382ZM17.0601 80.4028H12.6128V72.5503H17.0601V73.6353H13.9019V75.7676H16.8613V76.8472H13.9019V79.3125H17.0601V80.4028ZM28.6101 80.4028H27.0256L23.1799 74.1348H23.1315C23.1459 74.346 23.1584 74.5698 23.1691 74.8062C23.1835 75.0425 23.1942 75.286 23.2014 75.5366C23.2121 75.7873 23.2211 76.0415 23.2282 76.2993V80.4028H22.0573V72.5503H23.6311L27.4714 78.7754H27.509C27.5018 78.5928 27.4929 78.3833 27.4821 78.147C27.4714 77.9106 27.4606 77.6672 27.4499 77.4165C27.4427 77.1623 27.4374 76.917 27.4338 76.6807V72.5503H28.6101V80.4028ZM38.4198 80.4028H33.9726V72.5503H38.4198V73.6353H35.2616V75.7676H38.2211V76.8472H35.2616V79.3125H38.4198V80.4028ZM45.6246 72.5503C46.3014 72.5503 46.86 72.6326 47.3004 72.7974C47.7444 72.9621 48.0738 73.2127 48.2887 73.5493C48.5071 73.8859 48.6163 74.3138 48.6163 74.833C48.6163 75.2197 48.5447 75.5492 48.4015 75.8213C48.2582 76.0934 48.0702 76.319 47.8375 76.498C47.6048 76.6771 47.3559 76.8203 47.0909 76.9277L49.3199 80.4028H47.8644L45.9684 77.2554H44.7062V80.4028H43.4171V72.5503H45.6246ZM45.5387 73.6245H44.7062V76.1919H45.5978C46.1957 76.1919 46.629 76.0809 46.8976 75.8589C47.1697 75.6369 47.3058 75.3092 47.3058 74.876C47.3058 74.4212 47.1607 74.099 46.8707 73.9092C46.5842 73.7194 46.1402 73.6245 45.5387 73.6245ZM58.6087 80.4028L57.8406 78.2222H54.8382L54.0701 80.4028H52.7112L55.6331 72.5181H57.0618L59.9783 80.4028H58.6087ZM57.5076 77.1157L56.761 74.9673C56.7324 74.8742 56.6912 74.7435 56.6375 74.5752C56.5838 74.4033 56.5301 74.2297 56.4764 74.0542C56.4227 73.8752 56.3779 73.7248 56.3421 73.603C56.3063 73.7498 56.2615 73.9146 56.2078 74.0972C56.1577 74.2762 56.1075 74.4445 56.0574 74.6021C56.0109 74.7596 55.9751 74.8813 55.95 74.9673L55.198 77.1157H57.5076ZM67.0381 80.4028H65.7436V73.646H63.4448V72.5503H69.3315V73.646H67.0381V80.4028ZM73.8347 80.4028V72.5503H75.1237V80.4028H73.8347ZM86.3192 72.5503L83.5746 80.4028H82.2104L79.4657 72.5503H80.787L82.4413 77.4702C82.4914 77.6134 82.5451 77.7871 82.6024 77.9912C82.6633 78.1953 82.7188 78.4012 82.7689 78.6089C82.8227 78.8166 82.8638 79.001 82.8925 79.1621C82.9211 79.001 82.9605 78.8166 83.0106 78.6089C83.0644 78.4012 83.1199 78.1953 83.1771 77.9912C83.2344 77.7871 83.2881 77.6117 83.3383 77.4648L84.9979 72.5503H86.3192ZM95.0977 80.4028H90.6505V72.5503H95.0977V73.6353H91.9395V75.7676H94.899V76.8472H91.9395V79.3125H95.0977V80.4028ZM109.599 73.5332C109.223 73.5332 108.886 73.6012 108.589 73.7373C108.295 73.8734 108.046 74.0703 107.842 74.3281C107.638 74.5824 107.482 74.8921 107.375 75.2573C107.268 75.619 107.214 76.0272 107.214 76.4819C107.214 77.0907 107.3 77.6152 107.472 78.0557C107.644 78.4925 107.905 78.8291 108.256 79.0654C108.607 79.2982 109.051 79.4146 109.588 79.4146C109.921 79.4146 110.245 79.3823 110.56 79.3179C110.875 79.2534 111.201 79.1657 111.538 79.0547V80.1504C111.219 80.2757 110.897 80.367 110.571 80.4243C110.245 80.4816 109.869 80.5103 109.443 80.5103C108.641 80.5103 107.975 80.3438 107.445 80.0107C106.918 79.6777 106.525 79.2087 106.263 78.6035C106.005 77.9984 105.876 77.2894 105.876 76.4766C105.876 75.8822 105.959 75.3379 106.124 74.8438C106.288 74.3496 106.528 73.9235 106.843 73.5654C107.158 73.2038 107.547 72.9263 108.009 72.7329C108.474 72.536 109.006 72.4375 109.604 72.4375C109.998 72.4375 110.385 72.4823 110.764 72.5718C111.147 72.6577 111.502 72.7812 111.828 72.9424L111.376 74.0059C111.104 73.877 110.82 73.766 110.522 73.6729C110.225 73.5798 109.917 73.5332 109.599 73.5332ZM122.69 72.5503V77.6313C122.69 78.1792 122.574 78.6698 122.341 79.103C122.112 79.5363 121.765 79.88 121.299 80.1343C120.834 80.3849 120.248 80.5103 119.543 80.5103C118.536 80.5103 117.77 80.2471 117.244 79.7207C116.721 79.1908 116.46 78.4871 116.46 77.6099V72.5503H117.749V77.4971C117.749 78.1523 117.903 78.6357 118.211 78.9473C118.519 79.2588 118.979 79.4146 119.591 79.4146C120.014 79.4146 120.357 79.3411 120.622 79.1943C120.891 79.0439 121.088 78.8255 121.213 78.5391C121.342 78.249 121.406 77.8999 121.406 77.4917V72.5503H122.69ZM127.999 80.4028V72.5503H129.288V80.4028H127.999ZM139.194 78.2651C139.194 78.7306 139.08 79.1317 138.851 79.4683C138.625 79.8049 138.299 80.0627 137.873 80.2417C137.451 80.4207 136.946 80.5103 136.358 80.5103C136.072 80.5103 135.798 80.4941 135.537 80.4619C135.275 80.4297 135.028 80.3831 134.796 80.3223C134.566 80.2578 134.357 80.1808 134.167 80.0913V78.8774C134.486 79.0171 134.842 79.1442 135.236 79.2588C135.63 79.3698 136.031 79.4253 136.439 79.4253C136.772 79.4253 137.048 79.3823 137.266 79.2964C137.488 79.2069 137.653 79.0815 137.76 78.9204C137.868 78.7557 137.921 78.5641 137.921 78.3457C137.921 78.113 137.859 77.916 137.733 77.7549C137.608 77.5938 137.418 77.4469 137.164 77.3145C136.914 77.1784 136.598 77.0334 136.219 76.8794C135.961 76.7756 135.714 76.6574 135.478 76.5249C135.245 76.3924 135.037 76.2367 134.855 76.0576C134.672 75.8786 134.527 75.6673 134.42 75.4238C134.316 75.1768 134.264 74.8867 134.264 74.5537C134.264 74.1097 134.369 73.7301 134.581 73.415C134.796 73.0999 135.096 72.8582 135.483 72.6899C135.873 72.5216 136.328 72.4375 136.847 72.4375C137.259 72.4375 137.646 72.4805 138.007 72.5664C138.373 72.6523 138.731 72.7741 139.082 72.9316L138.673 73.9683C138.351 73.8358 138.038 73.7301 137.733 73.6514C137.433 73.5726 137.125 73.5332 136.81 73.5332C136.538 73.5332 136.307 73.5744 136.117 73.6567C135.927 73.7391 135.782 73.8555 135.682 74.0059C135.585 74.1527 135.537 74.3281 135.537 74.5322C135.537 74.7614 135.592 74.9548 135.703 75.1123C135.818 75.2663 135.993 75.4077 136.23 75.5366C136.469 75.6655 136.777 75.8088 137.153 75.9663C137.587 76.1453 137.954 76.3333 138.254 76.5303C138.559 76.7272 138.792 76.9635 138.953 77.2393C139.114 77.5114 139.194 77.8534 139.194 78.2651ZM144.009 80.4028V72.5503H145.298V80.4028H144.009ZM157.224 80.4028H155.64L151.794 74.1348H151.746C151.76 74.346 151.772 74.5698 151.783 74.8062C151.798 75.0425 151.808 75.286 151.815 75.5366C151.826 75.7873 151.835 76.0415 151.842 76.2993V80.4028H150.671V72.5503H152.245L156.085 78.7754H156.123C156.116 78.5928 156.107 78.3833 156.096 78.147C156.085 77.9106 156.075 77.6672 156.064 77.4165C156.057 77.1623 156.051 76.917 156.048 76.6807V72.5503H157.224V80.4028ZM167.034 80.4028H162.587V72.5503H167.034V73.6353H163.876V75.7676H166.835V76.8472H163.876V79.3125H167.034V80.4028Z" fill="#616A85" fill-opacity="0.6"/>
<path d="M16.2721 12.2941C18.1655 12.2941 19.6256 12.5026 20.6525 12.9198C21.6794 13.3049 22.5619 13.7221 23.3 14.1713C23.6851 14.396 23.9899 14.5725 24.2146 14.7008C24.4713 14.7971 24.712 14.8453 24.9366 14.8453C25.2575 14.8453 25.4821 14.6688 25.6105 14.3158C25.771 13.9628 25.8993 13.4333 25.9956 12.7273H27.1027C27.0706 13.337 27.0225 14.0751 26.9583 14.9415C26.9262 15.7759 26.8941 16.883 26.862 18.2629C26.862 19.6428 26.862 21.4559 26.862 23.7022H25.7549C25.6265 22.0335 25.2415 20.413 24.5996 18.8405C23.9578 17.2681 23.0433 15.9845 21.8559 14.9897C20.7006 13.9628 19.2726 13.4493 17.5718 13.4493C16.0315 13.4493 14.7639 13.8825 13.7691 14.749C12.7743 15.6154 12.2769 16.8188 12.2769 18.3592C12.2769 19.6428 12.5978 20.7499 13.2396 21.6805C13.8814 22.5791 14.812 23.4616 16.0315 24.328C17.283 25.1945 18.7913 26.2374 20.5562 27.4568C22.0966 28.4517 23.4765 29.4465 24.6959 30.4413C25.9154 31.4361 26.8941 32.5592 27.6322 33.8108C28.3703 35.0623 28.7393 36.5545 28.7393 38.2874C28.7393 40.4054 28.1777 42.1543 27.0546 43.5342C25.9635 44.9141 24.5194 45.9571 22.7223 46.663C20.9253 47.337 18.9517 47.6739 16.8016 47.6739C14.812 47.6739 13.2235 47.4814 12.0362 47.0963C10.8488 46.7112 9.85403 46.3101 9.05177 45.8929C8.34577 45.4436 7.80023 45.219 7.41515 45.219C7.09424 45.219 6.85356 45.3955 6.69311 45.7485C6.56475 46.1015 6.45243 46.631 6.35616 47.337H5.24903C5.31322 46.5668 5.34531 45.6682 5.34531 44.6413C5.3774 43.6144 5.39344 42.2827 5.39344 40.6461C5.42553 38.9774 5.44158 36.8754 5.44158 34.3403H6.5487C6.67706 36.4582 7.03006 38.4479 7.60769 40.3091C8.21741 42.1383 9.13199 43.6144 10.3514 44.7376C11.603 45.8608 13.2556 46.4224 15.3094 46.4224C16.4326 46.4224 17.4274 46.2298 18.2938 45.8447C19.1924 45.4276 19.9144 44.8178 20.46 44.0156C21.0055 43.2133 21.2783 42.2185 21.2783 41.0312C21.2783 39.6834 20.9574 38.512 20.3156 37.5172C19.7058 36.5224 18.8554 35.5918 17.7644 34.7254C16.7054 33.8589 15.4699 32.9764 14.0579 32.0779C12.5496 31.0831 11.1377 30.0883 9.82194 29.0935C8.50623 28.0987 7.44724 26.9594 6.64497 25.6758C5.8748 24.3922 5.48971 22.8679 5.48971 21.1029C5.48971 19.0812 5.98712 17.4285 6.98193 16.1449C8.00882 14.8292 9.34058 13.8665 10.9772 13.2568C12.6459 12.615 14.4109 12.2941 16.2721 12.2941ZM39.2322 47.337C37.7881 47.337 36.5847 47.0642 35.622 46.5186C34.6593 45.9731 33.9533 45.2511 33.504 44.3525C33.0548 43.4219 32.8301 42.411 32.8301 41.32C32.8301 39.9401 33.135 38.8169 33.7447 37.9505C34.3865 37.084 35.2048 36.378 36.1996 35.8325C37.1944 35.2869 38.2374 34.8377 39.3285 34.4847C40.4516 34.1317 41.5106 33.7947 42.5054 33.4738C43.5323 33.1208 44.3506 32.7197 44.9604 32.2704C45.6022 31.7891 45.9231 31.1794 45.9231 30.4413V26.6867C45.9231 25.8523 45.7787 25.1142 45.4899 24.4724C45.2331 23.7985 44.816 23.2851 44.2383 22.9321C43.6928 22.5791 42.9707 22.4026 42.0722 22.4026C41.4304 22.4026 40.7886 22.4989 40.1468 22.6914C39.505 22.8518 38.9755 23.1407 38.5583 23.5578C39.4568 23.8787 40.1468 24.3761 40.6281 25.0501C41.1416 25.6919 41.3983 26.4299 41.3983 27.2643C41.3983 28.3554 41.0132 29.2218 40.243 29.8636C39.505 30.5054 38.6225 30.8264 37.5956 30.8264C36.4403 30.8264 35.5578 30.4734 34.9481 29.7674C34.3705 29.0293 34.0817 28.1468 34.0817 27.1199C34.0817 26.1893 34.3063 25.4191 34.7556 24.8094C35.2369 24.1997 35.8948 23.622 36.7291 23.0765C37.6277 22.563 38.7027 22.1619 39.9542 21.8731C41.2379 21.5843 42.6177 21.4399 44.0939 21.4399C45.5701 21.4399 46.9018 21.6003 48.0892 21.9212C49.2765 22.21 50.2713 22.7556 51.0736 23.5578C51.8117 24.2959 52.2931 25.2105 52.5177 26.3016C52.7423 27.3606 52.8546 28.7084 52.8546 30.345V43.4379C52.8546 44.2402 52.9349 44.8018 53.0953 45.1227C53.2558 45.4115 53.5285 45.5559 53.9136 45.5559C54.2024 45.5559 54.4752 45.4757 54.7319 45.3152C55.0208 45.1548 55.3256 44.9622 55.6465 44.7376L56.1279 45.5559C55.454 46.1336 54.6678 46.5828 53.7692 46.9037C52.9028 47.1925 51.924 47.337 50.8329 47.337C49.6456 47.337 48.6989 47.1765 47.9929 46.8556C47.2869 46.5026 46.7735 46.0373 46.4526 45.4597C46.1638 44.882 46.0193 44.2081 46.0193 43.4379C45.2492 44.6574 44.3185 45.6201 43.2275 46.3261C42.1364 47 40.8046 47.337 39.2322 47.337ZM42.6498 44.2563C43.2917 44.2563 43.8693 44.1118 44.3827 43.823C44.9283 43.5021 45.4417 42.9887 45.9231 42.2827V32.4148C45.6343 32.8962 45.2331 33.3294 44.7197 33.7145C44.2062 34.0996 43.6607 34.5007 43.0831 34.9179C42.5054 35.303 41.9438 35.7362 41.3983 36.2176C40.8849 36.6989 40.4677 37.2926 40.1468 37.9986C39.8259 38.7046 39.6654 39.555 39.6654 40.5498C39.6654 41.8013 39.9382 42.732 40.4837 43.3417C41.0293 43.9514 41.7513 44.2563 42.6498 44.2563ZM81.0051 22.1138V23.0765C80.3954 23.2369 79.8177 23.622 79.2722 24.2317C78.7267 24.8094 78.1972 25.8042 77.6837 27.2162L70.6559 47.0963C70.1424 47.0642 69.6129 47.0481 69.0674 47.0481C68.5539 47.0481 68.0405 47.0642 67.527 47.0963L58.9589 25.8202C58.4454 24.5687 57.932 23.8146 57.4185 23.5578C56.9372 23.269 56.52 23.1246 56.167 23.1246V22.1138C57.1939 22.1779 58.2529 22.2421 59.344 22.3063C60.4671 22.3384 61.6866 22.3544 63.0023 22.3544C63.9971 22.3544 65.04 22.3384 66.1311 22.3063C67.2543 22.2421 68.2972 22.1779 69.2599 22.1138V23.1246C68.586 23.1246 67.9763 23.1567 67.4308 23.2209C66.9173 23.2851 66.5643 23.4937 66.3718 23.8467C66.1792 24.1997 66.2113 24.8254 66.4681 25.724L72.1 40.6461L71.6186 41.32L75.4213 30.7782C76.031 29.0453 76.2878 27.6333 76.1915 26.5423C76.0952 25.4191 75.7422 24.5847 75.1325 24.0392C74.5228 23.4616 73.7045 23.1407 72.6776 23.0765V22.1138C73.1589 22.1459 73.6724 22.1779 74.2179 22.21C74.7956 22.21 75.3411 22.2261 75.8545 22.2582C76.4001 22.2582 76.8814 22.2582 77.2986 22.2582C77.9404 22.2582 78.6143 22.2421 79.3203 22.21C80.0263 22.1779 80.5879 22.1459 81.0051 22.1138ZM94.6354 21.4399C96.978 21.4399 99.0318 21.8731 100.797 22.7395C102.562 23.606 103.942 25.0019 104.937 26.9273C105.931 28.8528 106.429 31.404 106.429 34.581C106.429 37.7579 105.931 40.3091 104.937 42.2346C103.942 44.1279 102.562 45.5078 100.797 46.3742C99.0318 47.2407 96.978 47.6739 94.6354 47.6739C92.357 47.6739 90.3192 47.2407 88.5222 46.3742C86.7572 45.5078 85.3613 44.1279 84.3344 42.2346C83.3395 40.3091 82.8421 37.7579 82.8421 34.581C82.8421 31.404 83.3395 28.8528 84.3344 26.9273C85.3613 25.0019 86.7572 23.606 88.5222 22.7395C90.3192 21.8731 92.357 21.4399 94.6354 21.4399ZM94.6354 22.4026C93.3518 22.4026 92.2768 23.3653 91.4103 25.2907C90.5439 27.1841 90.1107 30.2808 90.1107 34.581C90.1107 38.8811 90.5439 41.9778 91.4103 43.8712C92.2768 45.7645 93.3518 46.7112 94.6354 46.7112C95.9511 46.7112 97.0262 45.7645 97.8605 43.8712C98.727 41.9778 99.1602 38.8811 99.1602 34.581C99.1602 30.2808 98.727 27.1841 97.8605 25.2907C97.0262 23.3653 95.9511 22.4026 94.6354 22.4026ZM126.715 21.4399C127.741 21.4399 128.576 21.6645 129.218 22.1138C129.859 22.5309 130.325 23.0765 130.614 23.7504C130.934 24.4243 131.095 25.1303 131.095 25.8684C131.095 27.0557 130.742 28.0345 130.036 28.8046C129.362 29.5427 128.464 29.9118 127.34 29.9118C126.217 29.9118 125.335 29.639 124.693 29.0935C124.083 28.5158 123.778 27.7617 123.778 26.8311C123.778 25.9325 123.971 25.1945 124.356 24.6168C124.773 24.0071 125.287 23.4937 125.896 23.0765C125.447 22.9481 124.998 22.9642 124.548 23.1246C123.939 23.2209 123.361 23.4776 122.816 23.8948C122.27 24.2799 121.805 24.7773 121.42 25.387C121.035 25.9646 120.73 26.6064 120.505 27.3124C120.28 27.9863 120.168 28.6442 120.168 29.286V42.042C120.168 43.5824 120.537 44.6253 121.275 45.1708C122.045 45.7164 123.185 45.9891 124.693 45.9891V47C123.955 46.9679 122.88 46.9358 121.468 46.9037C120.056 46.8395 118.58 46.8075 117.039 46.8075C115.756 46.8075 114.456 46.8395 113.14 46.9037C111.825 46.9358 110.83 46.9679 110.156 47V45.9891C111.279 45.9891 112.065 45.7485 112.515 45.2671C112.996 44.7858 113.237 43.8712 113.237 42.5234V27.3606C113.237 25.9165 113.012 24.8575 112.563 24.1836C112.145 23.4776 111.343 23.1246 110.156 23.1246V22.1138C111.183 22.21 112.178 22.2582 113.14 22.2582C114.488 22.2582 115.74 22.21 116.895 22.1138C118.082 21.9854 119.173 21.8089 120.168 21.5843V26.0609C120.553 25.1945 121.067 24.4082 121.708 23.7022C122.35 22.9963 123.088 22.4507 123.923 22.0656C124.757 21.6485 125.688 21.4399 126.715 21.4399ZM139.99 47.337C138.546 47.337 137.343 47.0642 136.38 46.5186C135.417 45.9731 134.711 45.2511 134.262 44.3525C133.813 43.4219 133.588 42.411 133.588 41.32C133.588 39.9401 133.893 38.8169 134.503 37.9505C135.145 37.084 135.963 36.378 136.958 35.8325C137.953 35.2869 138.995 34.8377 140.087 34.4847C141.21 34.1317 142.269 33.7947 143.264 33.4738C144.29 33.1208 145.109 32.7197 145.718 32.2704C146.36 31.7891 146.681 31.1794 146.681 30.4413V26.6867C146.681 25.8523 146.537 25.1142 146.248 24.4724C145.991 23.7985 145.574 23.2851 144.996 22.9321C144.451 22.5791 143.729 22.4026 142.83 22.4026C142.189 22.4026 141.547 22.4989 140.905 22.6914C140.263 22.8518 139.734 23.1407 139.316 23.5578C140.215 23.8787 140.905 24.3761 141.386 25.0501C141.9 25.6919 142.156 26.4299 142.156 27.2643C142.156 28.3554 141.771 29.2218 141.001 29.8636C140.263 30.5054 139.381 30.8264 138.354 30.8264C137.198 30.8264 136.316 30.4734 135.706 29.7674C135.129 29.0293 134.84 28.1468 134.84 27.1199C134.84 26.1893 135.064 25.4191 135.514 24.8094C135.995 24.1997 136.653 23.622 137.487 23.0765C138.386 22.563 139.461 22.1619 140.712 21.8731C141.996 21.5843 143.376 21.4399 144.852 21.4399C146.328 21.4399 147.66 21.6003 148.847 21.9212C150.035 22.21 151.029 22.7556 151.832 23.5578C152.57 24.2959 153.051 25.2105 153.276 26.3016C153.5 27.3606 153.613 28.7084 153.613 30.345V43.4379C153.613 44.2402 153.693 44.8018 153.853 45.1227C154.014 45.4115 154.287 45.5559 154.672 45.5559C154.961 45.5559 155.233 45.4757 155.49 45.3152C155.779 45.1548 156.084 44.9622 156.405 44.7376L156.886 45.5559C156.212 46.1336 155.426 46.5828 154.527 46.9037C153.661 47.1925 152.682 47.337 151.591 47.337C150.404 47.337 149.457 47.1765 148.751 46.8556C148.045 46.5026 147.532 46.0373 147.211 45.4597C146.922 44.882 146.777 44.2081 146.777 43.4379C146.007 44.6574 145.077 45.6201 143.986 46.3261C142.894 47 141.563 47.337 139.99 47.337ZM143.408 44.2563C144.05 44.2563 144.627 44.1118 145.141 43.823C145.686 43.5021 146.2 42.9887 146.681 42.2827V32.4148C146.392 32.8962 145.991 33.3294 145.478 33.7145C144.964 34.0996 144.419 34.5007 143.841 34.9179C143.264 35.303 142.702 35.7362 142.156 36.2176C141.643 36.6989 141.226 37.2926 140.905 37.9986C140.584 38.7046 140.424 39.555 140.424 40.5498C140.424 41.8013 140.696 42.732 141.242 43.3417C141.787 43.9514 142.509 44.2563 143.408 44.2563Z" fill="#BA4953"/>
</svg>
