<svg width="723" height="673" viewBox="0 0 723 673" fill="none" xmlns="http://www.w3.org/2000/svg">
<mask id="mask0_45_980" style="mask-type:luminance" maskUnits="userSpaceOnUse" x="0" y="0" width="723" height="673">
<path d="M0 0H722.676V672.078H0V0Z" fill="white"/>
</mask>
<g mask="url(#mask0_45_980)">
<mask id="mask1_45_980" style="mask-type:luminance" maskUnits="userSpaceOnUse" x="0" y="0" width="723" height="672">
<path d="M4.09031 261.649C-4.08207 305.811 4.75201 351.163 14.1447 395.076C25.6728 449.038 38.3439 503.508 64.0856 552.315C89.8101 601.117 130.358 644.368 182.594 662.1C244.862 683.253 312.896 665.873 376.299 648.415C439.775 630.941 503.86 613.229 561.995 582.297C620.126 551.369 672.627 505.652 699.512 445.541C732.717 371.28 723.303 285.814 713.24 205.087C705.759 145.04 695.516 79.5152 650.439 39.1474C604.056 -2.39771 534.694 -4.2582 473.018 4.288C364.878 19.2621 281.676 69.6928 182.34 107.41C102.12 137.869 22.0421 164.685 4.09031 261.649Z" fill="white"/>
</mask>
<g mask="url(#mask1_45_980)">
<mask id="mask2_45_980" style="mask-type:luminance" maskUnits="userSpaceOnUse" x="0" y="0" width="723" height="672">
<path d="M4.09031 261.649C-4.08207 305.811 4.75201 351.163 14.1447 395.076C25.6728 449.038 38.3439 503.508 64.0856 552.315C89.8101 601.117 130.358 644.368 182.594 662.1C244.862 683.253 312.896 665.873 376.299 648.415C439.775 630.941 503.86 613.229 561.995 582.297C620.126 551.369 672.627 505.652 699.512 445.541C732.717 371.28 723.303 285.814 713.24 205.087C705.759 145.04 695.516 79.5152 650.439 39.1474C604.056 -2.39771 534.694 -4.2582 473.018 4.288C364.878 19.2621 281.676 69.6928 182.34 107.41C102.12 137.869 22.0421 164.685 4.09031 261.649Z" fill="white"/>
</mask>
<g mask="url(#mask2_45_980)">
<path d="M-4.08191 -4.25781V683.254H732.717V-4.25781H-4.08191Z" fill="#F6F2F1"/>
</g>
</g>
</g>
</svg>
