<svg width="586" height="153" viewBox="0 0 586 153" fill="none" xmlns="http://www.w3.org/2000/svg">
<path d="M71.5123 62.6147V63.5147C70.9123 63.7247 70.2523 64.1897 69.5323 64.9097C68.8123 65.6297 68.2123 66.7847 67.7323 68.3747L59.5873 94.6097C59.4073 94.6097 59.2123 94.5947 59.0023 94.5647C58.8223 94.5647 58.6273 94.5647 58.4173 94.5647C58.2373 94.5647 58.0423 94.5647 57.8323 94.5647C57.6523 94.5947 57.4723 94.6097 57.2923 94.6097L47.7523 66.0797C47.4223 65.0597 47.0323 64.3847 46.5823 64.0547C46.1623 63.7247 45.7273 63.5447 45.2773 63.5147V62.6147C45.9973 62.6447 46.8673 62.6747 47.8873 62.7047C48.9373 62.7347 49.9723 62.7497 50.9923 62.7497C52.2523 62.7497 53.4373 62.7347 54.5473 62.7047C55.6573 62.6747 56.5573 62.6447 57.2473 62.6147V63.5147C56.3173 63.5447 55.5973 63.6497 55.0873 63.8297C54.5773 63.9797 54.2773 64.3247 54.1873 64.8647C54.1273 65.3747 54.2773 66.1847 54.6373 67.2947L61.1173 87.2297L60.2173 88.6697L65.6173 71.6147C66.2773 69.5747 66.5773 67.9697 66.5173 66.7997C66.4873 65.6297 66.1423 64.8047 65.4823 64.3247C64.8223 63.8147 63.8773 63.5447 62.6473 63.5147V62.6147C63.6373 62.6447 64.5673 62.6747 65.4373 62.7047C66.3373 62.7347 67.2373 62.7497 68.1373 62.7497C68.8273 62.7497 69.4423 62.7347 69.9823 62.7047C70.5523 62.6747 71.0623 62.6447 71.5123 62.6147ZM39.6523 62.6147V63.5147C38.9623 63.5747 38.4823 63.7697 38.2123 64.0997C37.9423 64.4297 37.8223 64.8647 37.8523 65.4047C37.9123 65.9147 38.0623 66.5447 38.3023 67.2947L45.1873 87.7247L44.0173 89.1647L49.9573 71.2547L50.6323 72.4247L43.3873 94.6097C43.2073 94.6097 43.0123 94.5947 42.8023 94.5647C42.6223 94.5647 42.4273 94.5647 42.2173 94.5647C42.0373 94.5647 41.8423 94.5647 41.6323 94.5647C41.4523 94.5947 41.2723 94.6097 41.0923 94.6097L31.1923 66.3947C30.8023 65.2847 30.3223 64.5347 29.7523 64.1447C29.2123 63.7547 28.7173 63.5447 28.2673 63.5147V62.6147C29.0473 62.6447 29.9923 62.6747 31.1023 62.7047C32.2123 62.7347 33.2923 62.7497 34.3423 62.7497C35.4523 62.7497 36.4723 62.7347 37.4023 62.7047C38.3323 62.6747 39.0823 62.6447 39.6523 62.6147ZM81.2261 59.2397V75.1697C81.9761 73.4897 83.0111 72.3047 84.3311 71.6147C85.6811 70.9247 87.1361 70.5797 88.6961 70.5797C89.9261 70.5797 90.9311 70.7447 91.7111 71.0747C92.4911 71.4047 93.1211 71.8247 93.6011 72.3347C94.1111 72.9047 94.4711 73.6397 94.6811 74.5397C94.9211 75.4397 95.0411 76.6547 95.0411 78.1847V90.2897C95.0411 91.5497 95.2661 92.4047 95.7161 92.8547C96.1961 93.3047 96.9911 93.5297 98.1011 93.5297V94.4747C97.5611 94.4447 96.7361 94.4147 95.6261 94.3847C94.5161 94.3247 93.4211 94.2947 92.3411 94.2947C91.2611 94.2947 90.1961 94.3247 89.1461 94.3847C88.0961 94.4147 87.3011 94.4447 86.7611 94.4747V93.5297C87.7211 93.5297 88.3961 93.3047 88.7861 92.8547C89.1761 92.4047 89.3711 91.5497 89.3711 90.2897V76.6547C89.3711 75.8447 89.2961 75.1247 89.1461 74.4947C88.9961 73.8347 88.6961 73.3247 88.2461 72.9647C87.8261 72.5747 87.1811 72.3797 86.3111 72.3797C85.3511 72.3797 84.4811 72.6497 83.7011 73.1897C82.9511 73.6997 82.3511 74.4347 81.9011 75.3947C81.4511 76.3247 81.2261 77.3897 81.2261 78.5897V90.2897C81.2261 91.5497 81.4211 92.4047 81.8111 92.8547C82.2311 93.3047 82.9061 93.5297 83.8361 93.5297V94.4747C83.3261 94.4447 82.5611 94.4147 81.5411 94.3847C80.5511 94.3247 79.5161 94.2947 78.4361 94.2947C77.3561 94.2947 76.2311 94.3247 75.0611 94.3847C73.9211 94.4147 73.0661 94.4447 72.4961 94.4747V93.5297C73.6061 93.5297 74.3861 93.3047 74.8361 92.8547C75.3161 92.4047 75.5561 91.5497 75.5561 90.2897V64.6397C75.5561 63.2897 75.3311 62.2997 74.8811 61.6697C74.4611 61.0097 73.6661 60.6797 72.4961 60.6797V59.7347C73.4561 59.8247 74.3861 59.8697 75.2861 59.8697C76.4261 59.8697 77.4911 59.8247 78.4811 59.7347C79.4711 59.6147 80.3861 59.4497 81.2261 59.2397ZM107.136 94.7897C105.846 94.7897 104.751 94.5497 103.851 94.0697C102.951 93.5597 102.276 92.8847 101.826 92.0447C101.376 91.1747 101.151 90.2147 101.151 89.1647C101.151 87.8747 101.451 86.8247 102.051 86.0147C102.651 85.1747 103.416 84.5147 104.346 84.0347C105.306 83.5247 106.311 83.1047 107.361 82.7747C108.411 82.4147 109.401 82.0847 110.331 81.7847C111.261 81.4547 112.026 81.0797 112.626 80.6597C113.226 80.2397 113.526 79.6847 113.526 78.9947V75.7097C113.526 74.7497 113.376 73.9697 113.076 73.3697C112.806 72.7397 112.386 72.2747 111.816 71.9747C111.276 71.6447 110.586 71.4797 109.746 71.4797C109.116 71.4797 108.456 71.5697 107.766 71.7497C107.076 71.9297 106.506 72.2747 106.056 72.7847C106.836 72.9947 107.436 73.3847 107.856 73.9547C108.306 74.5247 108.531 75.2147 108.531 76.0247C108.531 76.9547 108.216 77.6897 107.586 78.2297C106.986 78.7397 106.221 78.9947 105.291 78.9947C104.301 78.9947 103.551 78.6797 103.041 78.0497C102.531 77.4197 102.276 76.6847 102.276 75.8447C102.276 75.0047 102.486 74.3147 102.906 73.7747C103.326 73.2047 103.911 72.6947 104.661 72.2447C105.411 71.7347 106.371 71.3297 107.541 71.0297C108.711 70.7297 109.986 70.5797 111.366 70.5797C112.686 70.5797 113.856 70.7297 114.876 71.0297C115.896 71.2997 116.766 71.7947 117.486 72.5147C118.206 73.2047 118.671 74.0597 118.881 75.0797C119.091 76.0997 119.196 77.3447 119.196 78.8147V91.1447C119.196 91.8947 119.286 92.4347 119.466 92.7647C119.646 93.0647 119.931 93.2147 120.321 93.2147C120.621 93.2147 120.906 93.1397 121.176 92.9897C121.446 92.8397 121.746 92.6297 122.076 92.3597L122.571 93.1247C121.911 93.6347 121.221 94.0397 120.501 94.3397C119.781 94.6397 118.911 94.7897 117.891 94.7897C116.841 94.7897 116.001 94.6397 115.371 94.3397C114.771 94.0397 114.321 93.6047 114.021 93.0347C113.751 92.4647 113.601 91.7897 113.571 91.0097C112.851 92.2097 111.966 93.1397 110.916 93.7997C109.866 94.4597 108.606 94.7897 107.136 94.7897ZM109.836 92.2697C110.556 92.2697 111.216 92.0747 111.816 91.6847C112.446 91.2947 113.016 90.7097 113.526 89.9297V80.8397C113.226 81.2897 112.791 81.6947 112.221 82.0547C111.681 82.4147 111.096 82.7747 110.466 83.1347C109.836 83.4947 109.236 83.9147 108.666 84.3947C108.126 84.8447 107.661 85.4147 107.271 86.1047C106.911 86.7647 106.731 87.6197 106.731 88.6697C106.731 89.8397 107.016 90.7397 107.586 91.3697C108.156 91.9697 108.906 92.2697 109.836 92.2697ZM133.37 63.8297V71.2547H139.13V72.1547H133.37V90.0647C133.37 91.1447 133.565 91.9097 133.955 92.3597C134.345 92.8097 134.9 93.0347 135.62 93.0347C136.31 93.0347 136.94 92.7797 137.51 92.2697C138.08 91.7297 138.59 90.8447 139.04 89.6147L139.85 89.9747C139.4 91.4447 138.695 92.6747 137.735 93.6647C136.805 94.6247 135.485 95.1047 133.775 95.1047C132.755 95.1047 131.885 94.9697 131.165 94.6997C130.475 94.4597 129.875 94.0997 129.365 93.6197C128.705 92.9297 128.255 92.1047 128.015 91.1447C127.805 90.1847 127.7 88.9097 127.7 87.3197V72.1547H123.74V71.2547H127.7V64.9997C128.78 64.9697 129.785 64.8647 130.715 64.6847C131.645 64.5047 132.53 64.2197 133.37 63.8297ZM161.607 70.5797C162.867 70.5797 163.947 70.7597 164.847 71.1197C165.747 71.4797 166.407 71.7947 166.827 72.0647C167.847 72.8147 168.462 72.3347 168.672 70.6247H169.662C169.602 71.4947 169.557 72.5297 169.527 73.7297C169.497 74.8997 169.482 76.4747 169.482 78.4547H168.492C168.342 77.3447 168.057 76.2647 167.637 75.2147C167.217 74.1647 166.602 73.2947 165.792 72.6047C164.982 71.8847 163.917 71.5247 162.597 71.5247C161.667 71.5247 160.887 71.7947 160.257 72.3347C159.657 72.8747 159.357 73.6397 159.357 74.6297C159.357 75.5297 159.627 76.3247 160.167 77.0147C160.707 77.6747 161.397 78.3047 162.237 78.9047C163.107 79.4747 164.007 80.1047 164.937 80.7947C166.017 81.5147 166.977 82.2497 167.817 82.9997C168.657 83.7197 169.332 84.5297 169.842 85.4297C170.352 86.2997 170.607 87.3347 170.607 88.5347C170.607 89.9147 170.217 91.0997 169.437 92.0897C168.687 93.0497 167.682 93.7997 166.422 94.3397C165.192 94.8497 163.827 95.1047 162.327 95.1047C161.517 95.1047 160.782 95.0297 160.122 94.8797C159.462 94.7297 158.877 94.5347 158.367 94.2947C157.977 94.0847 157.617 93.8897 157.287 93.7097C156.987 93.5297 156.672 93.3797 156.342 93.2597C156.042 93.1097 155.772 93.1697 155.532 93.4397C155.322 93.7097 155.157 94.1597 155.037 94.7897H154.047C154.107 93.8297 154.152 92.6597 154.182 91.2797C154.212 89.8997 154.227 88.0697 154.227 85.7897H155.217C155.427 87.4397 155.742 88.8947 156.162 90.1547C156.612 91.3847 157.257 92.3597 158.097 93.0797C158.937 93.7697 160.017 94.1147 161.337 94.1147C161.907 94.1147 162.447 93.9947 162.957 93.7547C163.497 93.5147 163.932 93.1397 164.262 92.6297C164.622 92.1197 164.802 91.4297 164.802 90.5597C164.802 89.2397 164.352 88.1447 163.452 87.2747C162.552 86.4047 161.427 85.4747 160.077 84.4847C159.057 83.7347 158.097 82.9997 157.197 82.2797C156.327 81.5597 155.607 80.7497 155.037 79.8497C154.497 78.9497 154.227 77.8847 154.227 76.6547C154.227 75.3047 154.572 74.1947 155.262 73.3247C155.952 72.4247 156.852 71.7497 157.962 71.2997C159.102 70.8197 160.317 70.5797 161.607 70.5797ZM182.994 59.2397V75.1697C183.744 73.4897 184.779 72.3047 186.099 71.6147C187.449 70.9247 188.904 70.5797 190.464 70.5797C191.694 70.5797 192.699 70.7447 193.479 71.0747C194.259 71.4047 194.889 71.8247 195.369 72.3347C195.879 72.9047 196.239 73.6397 196.449 74.5397C196.689 75.4397 196.809 76.6547 196.809 78.1847V90.2897C196.809 91.5497 197.034 92.4047 197.484 92.8547C197.964 93.3047 198.759 93.5297 199.869 93.5297V94.4747C199.329 94.4447 198.504 94.4147 197.394 94.3847C196.284 94.3247 195.189 94.2947 194.109 94.2947C193.029 94.2947 191.964 94.3247 190.914 94.3847C189.864 94.4147 189.069 94.4447 188.529 94.4747V93.5297C189.489 93.5297 190.164 93.3047 190.554 92.8547C190.944 92.4047 191.139 91.5497 191.139 90.2897V76.6547C191.139 75.8447 191.064 75.1247 190.914 74.4947C190.764 73.8347 190.464 73.3247 190.014 72.9647C189.594 72.5747 188.949 72.3797 188.079 72.3797C187.119 72.3797 186.249 72.6497 185.469 73.1897C184.719 73.6997 184.119 74.4347 183.669 75.3947C183.219 76.3247 182.994 77.3897 182.994 78.5897V90.2897C182.994 91.5497 183.189 92.4047 183.579 92.8547C183.999 93.3047 184.674 93.5297 185.604 93.5297V94.4747C185.094 94.4447 184.329 94.4147 183.309 94.3847C182.319 94.3247 181.284 94.2947 180.204 94.2947C179.124 94.2947 177.999 94.3247 176.829 94.3847C175.689 94.4147 174.834 94.4447 174.264 94.4747V93.5297C175.374 93.5297 176.154 93.3047 176.604 92.8547C177.084 92.4047 177.324 91.5497 177.324 90.2897V64.6397C177.324 63.2897 177.099 62.2997 176.649 61.6697C176.229 61.0097 175.434 60.6797 174.264 60.6797V59.7347C175.224 59.8247 176.154 59.8697 177.054 59.8697C178.194 59.8697 179.259 59.8247 180.249 59.7347C181.239 59.6147 182.154 59.4497 182.994 59.2397ZM208.904 94.7897C207.614 94.7897 206.519 94.5497 205.619 94.0697C204.719 93.5597 204.044 92.8847 203.594 92.0447C203.144 91.1747 202.919 90.2147 202.919 89.1647C202.919 87.8747 203.219 86.8247 203.819 86.0147C204.419 85.1747 205.184 84.5147 206.114 84.0347C207.074 83.5247 208.079 83.1047 209.129 82.7747C210.179 82.4147 211.169 82.0847 212.099 81.7847C213.029 81.4547 213.794 81.0797 214.394 80.6597C214.994 80.2397 215.294 79.6847 215.294 78.9947V75.7097C215.294 74.7497 215.144 73.9697 214.844 73.3697C214.574 72.7397 214.154 72.2747 213.584 71.9747C213.044 71.6447 212.354 71.4797 211.514 71.4797C210.884 71.4797 210.224 71.5697 209.534 71.7497C208.844 71.9297 208.274 72.2747 207.824 72.7847C208.604 72.9947 209.204 73.3847 209.624 73.9547C210.074 74.5247 210.299 75.2147 210.299 76.0247C210.299 76.9547 209.984 77.6897 209.354 78.2297C208.754 78.7397 207.989 78.9947 207.059 78.9947C206.069 78.9947 205.319 78.6797 204.809 78.0497C204.299 77.4197 204.044 76.6847 204.044 75.8447C204.044 75.0047 204.254 74.3147 204.674 73.7747C205.094 73.2047 205.679 72.6947 206.429 72.2447C207.179 71.7347 208.139 71.3297 209.309 71.0297C210.479 70.7297 211.754 70.5797 213.134 70.5797C214.454 70.5797 215.624 70.7297 216.644 71.0297C217.664 71.2997 218.534 71.7947 219.254 72.5147C219.974 73.2047 220.439 74.0597 220.649 75.0797C220.859 76.0997 220.964 77.3447 220.964 78.8147V91.1447C220.964 91.8947 221.054 92.4347 221.234 92.7647C221.414 93.0647 221.699 93.2147 222.089 93.2147C222.389 93.2147 222.674 93.1397 222.944 92.9897C223.214 92.8397 223.514 92.6297 223.844 92.3597L224.339 93.1247C223.679 93.6347 222.989 94.0397 222.269 94.3397C221.549 94.6397 220.679 94.7897 219.659 94.7897C218.609 94.7897 217.769 94.6397 217.139 94.3397C216.539 94.0397 216.089 93.6047 215.789 93.0347C215.519 92.4647 215.369 91.7897 215.339 91.0097C214.619 92.2097 213.734 93.1397 212.684 93.7997C211.634 94.4597 210.374 94.7897 208.904 94.7897ZM211.604 92.2697C212.324 92.2697 212.984 92.0747 213.584 91.6847C214.214 91.2947 214.784 90.7097 215.294 89.9297V80.8397C214.994 81.2897 214.559 81.6947 213.989 82.0547C213.449 82.4147 212.864 82.7747 212.234 83.1347C211.604 83.4947 211.004 83.9147 210.434 84.3947C209.894 84.8447 209.429 85.4147 209.039 86.1047C208.679 86.7647 208.499 87.6197 208.499 88.6697C208.499 89.8397 208.784 90.7397 209.354 91.3697C209.924 91.9697 210.674 92.2697 211.604 92.2697ZM235.092 59.2397V90.2897C235.092 91.5497 235.317 92.4047 235.767 92.8547C236.247 93.3047 237.042 93.5297 238.152 93.5297V94.4747C237.612 94.4447 236.787 94.4147 235.677 94.3847C234.597 94.3247 233.487 94.2947 232.347 94.2947C231.237 94.2947 230.097 94.3247 228.927 94.3847C227.787 94.4147 226.932 94.4447 226.362 94.4747V93.5297C227.472 93.5297 228.252 93.3047 228.702 92.8547C229.182 92.4047 229.422 91.5497 229.422 90.2897V64.6397C229.422 63.2897 229.212 62.2997 228.792 61.6697C228.372 61.0097 227.562 60.6797 226.362 60.6797V59.7347C227.322 59.8247 228.252 59.8697 229.152 59.8697C230.292 59.8697 231.357 59.8247 232.347 59.7347C233.337 59.6147 234.252 59.4497 235.092 59.2397ZM249.891 59.2397V90.2897C249.891 91.5497 250.116 92.4047 250.566 92.8547C251.046 93.3047 251.841 93.5297 252.951 93.5297V94.4747C252.411 94.4447 251.586 94.4147 250.476 94.3847C249.396 94.3247 248.286 94.2947 247.146 94.2947C246.036 94.2947 244.896 94.3247 243.726 94.3847C242.586 94.4147 241.731 94.4447 241.161 94.4747V93.5297C242.271 93.5297 243.051 93.3047 243.501 92.8547C243.981 92.4047 244.221 91.5497 244.221 90.2897V64.6397C244.221 63.2897 244.011 62.2997 243.591 61.6697C243.171 61.0097 242.361 60.6797 241.161 60.6797V59.7347C242.121 59.8247 243.051 59.8697 243.951 59.8697C245.091 59.8697 246.156 59.8247 247.146 59.7347C248.136 59.6147 249.051 59.4497 249.891 59.2397Z" fill="#1E1F22"/>
<path d="M284.577 107.765C282.744 109.658 280.644 111.226 278.278 112.468C275.912 113.651 273.25 114.242 270.293 114.242C267.572 114.242 265.354 113.769 263.639 112.823C261.924 111.817 260.652 110.516 259.824 108.919C259.055 107.263 258.67 105.488 258.67 103.595C258.67 100.815 259.469 98.006 261.066 95.1669C262.663 92.2686 264.822 89.3703 267.543 86.4721C270.323 83.5738 273.428 80.7052 276.859 77.866C280.348 75.0269 283.956 72.247 287.683 69.5262H288.392C286.973 69.7628 285.612 70.2359 284.311 70.9457C283.01 71.5964 281.827 72.3357 280.762 73.1638C279.698 73.9918 278.633 74.7016 277.568 75.2931C276.563 75.8846 275.557 76.1803 274.552 76.1803C273.428 76.1803 272.482 75.8846 271.713 75.2931C271.003 74.6425 270.175 74.3172 269.228 74.3172C268.341 74.3172 267.631 74.6721 267.099 75.3818C266.567 76.0325 266.005 77.2154 265.413 78.9307L264.526 81.6811H262.84L264.881 75.2044C266.005 71.5964 267.277 69.2009 268.696 68.0179C270.175 66.7758 271.683 66.1547 273.221 66.1547C274.345 66.1547 275.35 66.3913 276.237 66.8645C277.125 67.3377 278.041 67.8404 278.988 68.3728C279.993 68.846 281.235 69.0826 282.714 69.0826C283.838 69.0826 284.962 68.9347 286.086 68.639C287.209 68.2841 288.363 67.6926 289.546 66.8645L290.699 65.1788L292.562 66.066C289.605 68.846 286.795 71.8034 284.134 74.9382C281.531 78.0731 279.224 81.2671 277.213 84.5202C275.202 87.7142 273.605 90.9378 272.422 94.1909C271.239 97.4441 270.648 100.638 270.648 103.773C270.648 106.198 271.032 107.972 271.801 109.096C272.57 110.22 273.694 110.782 275.173 110.782C276.592 110.782 278.071 110.397 279.609 109.629C281.147 108.86 282.625 107.736 284.045 106.257L284.577 107.765ZM296.998 109.717C299.305 109.717 301.346 109.067 303.12 107.765C304.895 106.464 306.373 104.778 307.556 102.708C308.798 100.579 309.745 98.2426 310.395 95.6992C311.105 93.1558 311.578 90.642 311.815 88.1578C312.052 85.6736 312.022 83.3964 311.726 81.3262C310.248 80.7939 308.68 80.1137 307.024 79.2856C305.368 78.3984 303.978 77.2746 302.854 75.9142C301.73 74.4946 301.168 72.8089 301.168 70.857C301.168 69.4374 301.582 68.2841 302.41 67.3968C303.298 66.4505 304.422 65.9773 305.782 65.9773C307.142 65.9773 308.266 66.4209 309.153 67.3081C310.041 68.1362 310.78 69.2304 311.371 70.5908C311.963 71.9512 312.436 73.4299 312.791 75.0269C313.146 76.6239 313.412 78.1914 313.589 79.7292C313.944 82.5092 313.974 85.4666 313.678 88.6014C313.382 91.7363 312.732 94.812 311.726 97.8285C310.78 100.845 309.449 103.595 307.734 106.08C306.019 108.564 303.919 110.545 301.435 112.024C299.009 113.503 296.17 114.242 292.917 114.242C290.965 114.242 289.102 113.887 287.328 113.177C285.612 112.468 284.222 111.226 283.158 109.451C282.093 107.677 281.561 105.222 281.561 102.087C281.561 99.4255 282.004 96.8526 282.892 94.3684C283.838 91.825 285.021 89.5774 286.441 87.6255C287.86 85.6144 289.368 84.047 290.965 82.9232C292.562 81.7402 294.011 81.1488 295.313 81.1488C296.318 81.1488 297.058 81.4741 297.531 82.1247C298.004 82.7753 298.3 83.5738 298.418 84.5202C298.595 85.4666 298.684 86.3242 298.684 87.0931C298.684 90.5829 297.827 94.043 296.111 97.4736C294.396 100.845 291.823 103.921 288.392 106.701L287.86 105.192C290.522 102.886 292.651 100.135 294.248 96.9413C295.845 93.6882 296.644 90.4646 296.644 87.2706C296.644 86.0876 296.525 85.1117 296.289 84.3428C296.052 83.5147 295.638 83.1007 295.047 83.1007C294.159 83.1007 293.243 83.84 292.296 85.3187C291.35 86.7383 290.522 88.5718 289.812 90.8195C289.161 93.0671 288.836 95.4626 288.836 98.006C288.836 100.017 289.102 101.939 289.635 103.773C290.167 105.547 291.054 106.996 292.296 108.12C293.538 109.185 295.106 109.717 296.998 109.717ZM325.674 93.4811C328.454 92.4165 330.997 91.3222 333.304 90.1984C335.67 89.0155 337.651 87.7733 339.248 86.4721C341.437 84.5202 343.211 82.243 344.571 79.6405C345.932 76.9788 346.612 74.0806 346.612 70.9457C346.612 69.5853 346.494 68.6981 346.257 68.2841C346.021 67.87 345.666 67.663 345.193 67.663C343.832 67.663 342.353 68.3136 340.756 69.6149C339.159 70.9161 337.592 72.7202 336.054 75.0269C334.516 77.2746 333.097 79.8179 331.795 82.657C330.553 85.4961 329.548 88.4831 328.779 91.618C328.01 94.7528 327.626 97.8581 327.626 100.934C327.626 104.069 328.217 106.287 329.4 107.588C330.642 108.83 332.269 109.451 334.28 109.451C335.995 109.451 338.036 108.889 340.402 107.765C342.767 106.642 345.104 104.601 347.411 101.644L348.83 102.353C347.647 104.305 346.08 106.198 344.128 108.032C342.176 109.865 339.928 111.373 337.385 112.556C334.901 113.68 332.15 114.242 329.134 114.242C326.65 114.242 324.402 113.769 322.391 112.823C320.38 111.876 318.812 110.486 317.689 108.653C316.565 106.76 316.003 104.453 316.003 101.732C316.003 98.834 316.506 95.7583 317.511 92.5052C318.517 89.1929 319.936 85.9693 321.77 82.8345C323.663 79.6996 325.881 76.8605 328.424 74.3172C331.027 71.7738 333.895 69.7628 337.03 68.2841C340.165 66.7462 343.536 65.9773 347.144 65.9773C349.51 65.9773 351.492 66.5392 353.089 67.663C354.686 68.7277 355.484 70.3838 355.484 72.6314C355.484 74.9382 354.834 77.0971 353.532 79.1082C352.231 81.1192 350.457 82.9528 348.209 84.6089C346.021 86.2651 343.596 87.7438 340.934 89.045C338.331 90.3463 335.699 91.4701 333.038 92.4165C330.376 93.3628 327.892 94.1318 325.585 94.7232L325.674 93.4811ZM403.218 67.7517C400.97 67.7517 398.752 68.6685 396.564 70.5021C394.435 72.3357 392.483 74.8495 390.708 78.0435C388.993 81.1783 387.603 84.7568 386.538 88.7789C385.533 92.7418 385.03 96.8526 385.03 101.111C385.03 104.187 385.621 106.405 386.804 107.765C388.047 109.126 389.644 109.806 391.595 109.806C393.547 109.806 395.558 109.215 397.629 108.032C399.699 106.849 401.769 104.719 403.839 101.644L405.614 102.353C404.431 104.305 402.922 106.198 401.089 108.032C399.255 109.865 397.126 111.373 394.701 112.556C392.335 113.68 389.703 114.242 386.804 114.242C382.901 114.242 379.707 113.148 377.222 110.959C374.738 108.712 373.496 105.34 373.496 100.845C373.496 97.9468 373.91 94.9007 374.738 91.7067C375.625 88.5127 376.897 85.4074 378.553 82.3909C380.209 79.3152 382.22 76.5648 384.586 74.1397C386.952 71.6555 389.644 69.674 392.66 68.1953C395.677 66.7166 398.989 65.9773 402.597 65.9773C405.614 65.9773 408.068 66.7462 409.961 68.2841C411.913 69.8219 412.889 71.8034 412.889 74.2284C412.889 75.648 412.534 77.038 411.824 78.3984C411.173 79.7588 410.257 80.8826 409.074 81.7698C407.891 82.657 406.53 83.1007 404.992 83.1007C403.632 83.1007 402.508 82.6866 401.621 81.8585C400.793 81.0305 400.379 79.9362 400.379 78.5758C400.379 76.3873 401.148 74.4946 402.686 72.8976C404.283 71.3006 406.057 70.2655 408.009 69.7923C407.477 69.2009 406.826 68.7277 406.057 68.3728C405.347 67.9587 404.401 67.7517 403.218 67.7517ZM438.145 67.7517C436.607 67.7517 435.039 68.5502 433.442 70.1472C431.845 71.6851 430.337 73.8144 428.918 76.5352C427.498 79.1969 426.197 82.1839 425.014 85.4961C423.89 88.8084 423.003 92.239 422.352 95.7879C421.702 99.2776 421.376 102.62 421.376 105.814C421.376 108.179 421.672 109.895 422.263 110.959C422.914 111.965 423.86 112.468 425.103 112.468C426.581 112.468 428.119 111.699 429.716 110.161C431.313 108.623 432.821 106.553 434.241 103.95C435.72 101.289 437.021 98.3313 438.145 95.0781C439.269 91.7658 440.156 88.3353 440.806 84.7864C441.457 81.2375 441.782 77.7773 441.782 74.4059C441.782 71.9217 441.457 70.2064 440.806 69.26C440.215 68.2545 439.328 67.7517 438.145 67.7517ZM410.907 99.8691C410.907 97.2075 411.262 94.3388 411.972 91.2631C412.741 88.1874 413.864 85.1708 415.343 82.2134C416.822 79.1969 418.655 76.4761 420.844 74.051C423.092 71.5668 425.694 69.6149 428.651 68.1953C431.609 66.7166 434.951 65.9773 438.677 65.9773C442.936 65.9773 446.248 67.1898 448.614 69.6149C451.039 71.9808 452.252 75.5593 452.252 80.3503C452.252 83.0119 451.867 85.8806 451.098 88.9563C450.388 92.032 449.294 95.0781 447.815 98.0947C446.337 101.052 444.474 103.773 442.226 106.257C440.037 108.682 437.464 110.634 434.507 112.113C431.55 113.532 428.208 114.242 424.481 114.242C420.223 114.242 416.881 113.03 414.456 110.605C412.09 108.179 410.907 104.601 410.907 99.8691ZM480.835 67.7517C479.297 67.7517 477.729 68.5502 476.132 70.1472C474.535 71.6851 473.027 73.8144 471.607 76.5352C470.188 79.1969 468.887 82.1839 467.704 85.4961C466.58 88.8084 465.693 92.239 465.042 95.7879C464.391 99.2776 464.066 102.62 464.066 105.814C464.066 108.179 464.362 109.895 464.953 110.959C465.604 111.965 466.55 112.468 467.792 112.468C469.271 112.468 470.809 111.699 472.406 110.161C474.003 108.623 475.511 106.553 476.931 103.95C478.409 101.289 479.711 98.3313 480.835 95.0781C481.958 91.7658 482.846 88.3353 483.496 84.7864C484.147 81.2375 484.472 77.7773 484.472 74.4059C484.472 71.9217 484.147 70.2064 483.496 69.26C482.905 68.2545 482.017 67.7517 480.835 67.7517ZM453.597 99.8691C453.597 97.2075 453.952 94.3388 454.662 91.2631C455.43 88.1874 456.554 85.1708 458.033 82.2134C459.512 79.1969 461.345 76.4761 463.534 74.051C465.781 71.5668 468.384 69.6149 471.341 68.1953C474.299 66.7166 477.641 65.9773 481.367 65.9773C485.626 65.9773 488.938 67.1898 491.304 69.6149C493.729 71.9808 494.941 75.5593 494.941 80.3503C494.941 83.0119 494.557 85.8806 493.788 88.9563C493.078 92.032 491.984 95.0781 490.505 98.0947C489.027 101.052 487.163 103.773 484.916 106.257C482.727 108.682 480.154 110.634 477.197 112.113C474.24 113.532 470.898 114.242 467.171 114.242C462.913 114.242 459.571 113.03 457.146 110.605C454.78 108.179 453.597 104.601 453.597 99.8691ZM504.538 113H493.625L511.192 53.8224C511.783 51.8113 511.695 50.3326 510.926 49.3863C510.216 48.4399 508.412 47.9667 505.514 47.9667L506.135 46.1035C510.039 46.0444 513.499 45.7191 516.515 45.1276C519.591 44.477 522.489 43.5897 525.21 42.4659L504.538 113ZM528.138 106.612C527.901 107.972 527.901 108.919 528.138 109.451C528.375 109.983 528.877 110.25 529.646 110.25C530.593 110.25 531.539 109.747 532.485 108.741C533.432 107.677 534.437 105.636 535.502 102.62L536.833 98.627H538.518L536.389 105.104C535.561 107.529 534.496 109.392 533.195 110.693C531.953 111.994 530.563 112.911 529.025 113.444C527.487 113.976 525.949 114.242 524.412 114.242C521.809 114.242 519.887 113.444 518.645 111.847C517.403 110.25 517.136 107.825 517.846 104.571L519.443 97.4736C520.212 94.2205 519.975 91.8546 518.733 90.3759C517.491 88.8972 514.8 87.9804 510.66 87.6255V87.2706C513.144 87.0931 515.628 87.0931 518.112 87.2706C520.597 87.448 522.815 87.9804 524.766 88.8676C526.718 89.6957 528.167 90.9378 529.114 92.5939C530.06 94.2501 530.238 96.4385 529.646 99.1594L528.138 106.612ZM533.55 67.7517C532.781 67.7517 532.101 67.87 531.509 68.1066C530.977 68.3432 530.445 68.6685 529.912 69.0826C528.848 69.9698 527.96 71.1823 527.251 72.7202C526.541 74.1989 525.831 75.7959 525.121 77.5112C524.471 79.2265 523.613 80.853 522.548 82.3909C521.543 83.9287 520.182 85.2004 518.467 86.2059C516.752 87.1523 514.504 87.5959 511.724 87.5368L510.837 87.6255L511.015 86.6495C513.735 86.4721 515.894 85.8806 517.491 84.8751C519.147 83.8696 520.449 82.6275 521.395 81.1488C522.341 79.6109 523.11 78.0139 523.702 76.3578C524.352 74.7016 525.033 73.1342 525.742 71.6555C526.452 70.1768 527.399 68.9643 528.582 68.0179C529.587 67.1898 530.563 66.6575 531.509 66.4209C532.456 66.1252 533.313 65.9773 534.082 65.9773C536.685 65.9773 538.548 66.6871 539.672 68.1066C540.796 69.5262 541.328 71.2119 541.269 73.1638C541.269 74.3467 541.003 75.4706 540.47 76.5352C539.938 77.5999 539.169 78.4871 538.164 79.1969C537.158 79.8475 535.975 80.1728 534.615 80.1728C532.899 80.1728 531.628 79.6996 530.8 78.7533C530.031 77.7478 529.646 76.6239 529.646 75.3818C529.705 73.9623 530.208 72.6314 531.154 71.3893C532.16 70.0881 533.284 69.0234 534.526 68.1953C534.408 68.077 534.26 67.9883 534.082 67.9292C533.905 67.8109 533.727 67.7517 533.55 67.7517ZM566.783 45.3938C565.896 45.3938 564.891 45.5121 563.767 45.7486C562.702 45.9261 561.697 46.2514 560.75 46.7246C559.804 47.1978 559.094 47.8484 558.621 48.6765C559.39 48.6765 560.159 48.9131 560.928 49.3863C561.697 49.8003 562.318 50.3918 562.791 51.1607C563.264 51.9296 563.471 52.7873 563.412 53.7336C563.412 55.3306 562.82 56.6615 561.637 57.7261C560.454 58.7908 559.005 59.3231 557.29 59.3231C555.811 59.3231 554.54 58.8795 553.475 57.9923C552.469 57.0459 551.967 55.7447 551.967 54.0885C551.967 52.3141 552.499 50.7762 553.564 49.475C554.628 48.1146 556.048 47.0203 557.822 46.1923C559.597 45.305 561.519 44.6544 563.589 44.2404C565.719 43.8263 567.789 43.6193 569.8 43.6193C572.698 43.6193 575.301 44.0334 577.607 44.8614C579.973 45.6303 581.866 46.8133 583.286 48.4103C584.764 50.0073 585.504 52.0183 585.504 54.4434C585.504 56.2179 585.001 58.0219 583.995 59.8555C582.99 61.6299 581.334 63.6114 579.027 65.7998C576.779 67.9292 573.763 70.4134 569.977 73.2525C566.547 75.855 563.796 77.9843 561.726 79.6405C559.656 81.2375 558.148 82.7458 557.201 84.1653C556.255 85.5257 555.782 87.0931 555.782 88.8676C555.782 90.4054 556.255 91.7658 557.201 92.9488C558.148 94.0726 559.715 94.6345 561.904 94.6345C563.264 94.6345 564.654 94.3979 566.073 93.9247C567.493 93.4516 568.558 92.7418 569.267 91.7954C568.439 91.618 567.611 91.1152 566.783 90.2871C566.014 89.3999 565.659 88.3353 565.719 87.0931C565.719 85.7327 566.192 84.5498 567.138 83.5443C568.144 82.5387 569.474 82.036 571.131 82.036C572.314 82.036 573.349 82.4204 574.236 83.1894C575.123 83.8992 575.567 84.9638 575.567 86.3834C575.567 88.0987 575.034 89.5774 573.97 90.8195C572.964 92.0616 571.633 93.0967 569.977 93.9247C568.38 94.7528 566.635 95.3739 564.743 95.7879C562.909 96.1428 561.135 96.3202 559.419 96.3202C557.113 96.3202 555.013 95.9949 553.12 95.3443C551.227 94.6345 549.749 93.5699 548.684 92.1503C547.619 90.7308 547.087 88.9563 547.087 86.827C547.087 84.4019 547.767 82.2134 549.128 80.2615C550.547 78.3097 552.381 76.4169 554.628 74.5833C556.935 72.7497 559.449 70.7683 562.17 68.639C564.891 66.5096 567.138 64.6465 568.913 63.0495C570.746 61.4525 572.107 59.885 572.994 58.3472C573.94 56.7502 574.413 55.0349 574.413 53.2013C574.413 50.9537 573.763 49.0905 572.461 47.6118C571.219 46.1331 569.327 45.3938 566.783 45.3938ZM549.482 109.185C549.482 106.996 550.281 105.133 551.878 103.595C553.475 102.058 555.338 101.289 557.467 101.289C559.183 101.289 560.514 101.762 561.46 102.708C562.465 103.655 562.968 104.926 562.968 106.523C562.968 107.884 562.584 109.155 561.815 110.338C561.105 111.462 560.129 112.379 558.887 113.089C557.704 113.858 556.403 114.242 554.983 114.242C553.268 114.242 551.908 113.798 550.902 112.911C549.956 111.965 549.482 110.723 549.482 109.185Z" fill="#AF2C38"/>
</svg>
